# xmcd
#
# Track frame offsets: 
#        150
#        10988
#        27494
#        51589
#        64257
#        79505
#        100499
#        113035
#        135706
#        152750
#
# Disc length: 2334 seconds
#
# Revision: 13
# Processed by: cddbd v1.5.2PL0 Copyright (c) Steve Scherf et al.
# Submitted via: ExactAudioCopy v1.0b1
#
DISCID=85091c0a
DTITLE=Stevie Ray Vaughan And Double Trouble - Texas Flood (MFSL - SAC
DTITLE=D)
DYEAR=1983
DGENRE=Blues
TTITLE0=Love Struck Baby
TTITLE1=Pride And Joy
TTITLE2=Texas Flood
TTITLE3=Tell Me
TTITLE4=Testify
TTITLE5=Rude Mood
TTITLE6=Mary Had A Little Lamb
TTITLE7=Dirty Pool
TTITLE8=I'm Cryin'
TTITLE9=Lenny
EXTD=Guitars and Vocals: Stevie Ray Vaughan\nBass: Tommy Shannon\nDrums:
EXTD=Chris "Whipper" Layton\n\nProduced by Stevie Ray Vaughan, Richar
EXTD=d Mullen, and Double Trouble\n
EXTT0=
EXTT1=
EXTT2=
EXTT3=
EXTT4=
EXTT5=
EXTT6=
EXTT7=
EXTT8=
EXTT9=
PLAYORDER=
